REM DIRINDEX 1\6,1\2\7,1\2\8,1\2\9,1\3\10,1\3\11,1\4\12,1\4\13,1\4\14,1\5\15,1\5\16,1\5\17
REM DIRNAME cjc040,folder01,folder02,folder03,folder04,folder05,folder06,folder07,folder08,folder09,folder10,folder11,folder12,folder13,folder14,folder15,folder16
TITLE ""
FILE "P2Q_t_0427-0444.mp3" MP3
  TRACK 01 AUDIO
    TITLE "10:cjc040_2505"
    INDEX 01 00:00:00
  TRACK 02 AUDIO
    TITLE "0:"
    INDEX 01 00:01:07
  TRACK 03 AUDIO
    TITLE "11:cjc040_2506"
    INDEX 01 00:01:64
  TRACK 04 AUDIO
    TITLE "0:"
    INDEX 01 00:03:55
  TRACK 05 AUDIO
    TITLE "10:cjc040_2507"
    INDEX 01 00:04:36
  TRACK 06 AUDIO
    TITLE "0:"
    INDEX 01 00:05:48
  TRACK 07 AUDIO
    TITLE "11:cjc040_2508"
    INDEX 01 00:06:26
  TRACK 08 AUDIO
    TITLE "0:"
    INDEX 01 00:08:52
  TRACK 09 AUDIO
    TITLE "10:cjc040_2509"
    INDEX 01 00:09:28
  TRACK 10 AUDIO
    TITLE "0:"
    INDEX 01 00:10:33
  TRACK 11 AUDIO
    TITLE "11:cjc040_2510"
    INDEX 01 00:11:13
  TRACK 12 AUDIO
    TITLE "0:"
    INDEX 01 00:13:30
  TRACK 13 AUDIO
    TITLE "10:cjc040_2511"
    INDEX 01 00:14:13
  TRACK 14 AUDIO
    TITLE "0:"
    INDEX 01 00:15:25
  TRACK 15 AUDIO
    TITLE "11:cjc040_2512"
    INDEX 01 00:16:08
  TRACK 16 AUDIO
    TITLE "0:"
    INDEX 01 00:17:43
  TRACK 17 AUDIO
    TITLE "10:cjc040_2513"
    INDEX 01 00:18:27
  TRACK 18 AUDIO
    TITLE "0:"
    INDEX 01 00:19:28
  TRACK 19 AUDIO
    TITLE "11:cjc040_2514"
    INDEX 01 00:20:12
  TRACK 20 AUDIO
    TITLE "0:"
    INDEX 01 00:21:27
  TRACK 21 AUDIO
    TITLE "10:cjc040_2515"
    INDEX 01 00:22:13
  TRACK 22 AUDIO
    TITLE "0:"
    INDEX 01 00:23:22
  TRACK 23 AUDIO
    TITLE "11:cjc040_2516"
    INDEX 01 00:24:06
  TRACK 24 AUDIO
    TITLE "0:"
    INDEX 01 00:25:15
  TRACK 25 AUDIO
    TITLE "10:cjc040_2517"
    INDEX 01 00:25:70
  TRACK 26 AUDIO
    TITLE "0:"
    INDEX 01 00:27:12
  TRACK 27 AUDIO
    TITLE "11:cjc040_2518"
    INDEX 01 00:27:73
  TRACK 28 AUDIO
    TITLE "0:"
    INDEX 01 00:29:13
  TRACK 29 AUDIO
    TITLE "10:cjc040_2519"
    INDEX 01 00:29:70
  TRACK 30 AUDIO
    TITLE "0:"
    INDEX 01 00:31:16
  TRACK 31 AUDIO
    TITLE "11:cjc040_2520"
    INDEX 01 00:31:67
  TRACK 32 AUDIO
    TITLE "0:"
    INDEX 01 00:34:28
  TRACK 33 AUDIO
    TITLE "10:cjc040_2521"
    INDEX 01 00:35:12
  TRACK 34 AUDIO
    TITLE "0:"
    INDEX 01 00:36:21
  TRACK 35 AUDIO
    TITLE "11:cjc040_2522"
    INDEX 01 00:36:74
  TRACK 36 AUDIO
    TITLE "0:"
    INDEX 01 00:38:10
  TRACK 37 AUDIO
    TITLE "10:cjc040_2523"
    INDEX 01 00:38:69
  TRACK 38 AUDIO
    TITLE "0:"
    INDEX 01 00:39:62
  TRACK 39 AUDIO
    TITLE "11:cjc040_2524"
    INDEX 01 00:40:48
  TRACK 40 AUDIO
    TITLE "0:"
    INDEX 01 00:44:58
  TRACK 41 AUDIO
    TITLE "10:cjc040_2525"
    INDEX 01 00:45:37
  TRACK 42 AUDIO
    TITLE "0:"
    INDEX 01 00:46:54
  TRACK 43 AUDIO
    TITLE "11:cjc040_2526"
    INDEX 01 00:47:32
  TRACK 44 AUDIO
    TITLE "0:"
    INDEX 01 00:53:60
  TRACK 45 AUDIO
    TITLE "10:cjc040_2527"
    INDEX 01 00:54:40
  TRACK 46 AUDIO
    TITLE "0:"
    INDEX 01 00:55:46
  TRACK 47 AUDIO
    TITLE "11:cjc040_2528"
    INDEX 01 00:56:24
  TRACK 48 AUDIO
    TITLE "0:"
    INDEX 01 00:57:58
  TRACK 49 AUDIO
    TITLE "10:cjc040_2529"
    INDEX 01 00:58:36
  TRACK 50 AUDIO
    TITLE "0:"
    INDEX 01 00:59:47
  TRACK 51 AUDIO
    TITLE "11:cjc040_2530"
    INDEX 01 01:00:25
  TRACK 52 AUDIO
    TITLE "0:"
    INDEX 01 01:02:67
  TRACK 53 AUDIO
    TITLE "10:cjc040_2531"
    INDEX 01 01:03:45
  TRACK 54 AUDIO
    TITLE "0:"
    INDEX 01 01:04:43
  TRACK 55 AUDIO
    TITLE "11:cjc040_2532"
    INDEX 01 01:05:24
  TRACK 56 AUDIO
    TITLE "0:"
    INDEX 01 01:06:61
  TRACK 57 AUDIO
    TITLE "10:cjc040_2533"
    INDEX 01 01:07:45
  TRACK 58 AUDIO
    TITLE "0:"
    INDEX 01 01:08:58
  TRACK 59 AUDIO
    TITLE "11:cjc040_2534"
    INDEX 01 01:09:38
  TRACK 60 AUDIO
    TITLE "0:"
    INDEX 01 01:14:55
  TRACK 61 AUDIO
    TITLE "10:cjc040_2535"
    INDEX 01 01:15:31
  TRACK 62 AUDIO
    TITLE "0:"
    INDEX 01 01:16:40
  TRACK 63 AUDIO
    TITLE "11:cjc040_2536"
    INDEX 01 01:17:22
  TRACK 64 AUDIO
    TITLE "0:"
    INDEX 01 01:18:66
  TRACK 65 AUDIO
    TITLE "10:cjc040_2537"
    INDEX 01 01:19:42
  TRACK 66 AUDIO
    TITLE "0:"
    INDEX 01 01:21:06
  TRACK 67 AUDIO
    TITLE "11:cjc040_2538"
    INDEX 01 01:21:59
  TRACK 68 AUDIO
    TITLE "0:"
    INDEX 01 01:24:51
  TRACK 69 AUDIO
    TITLE "10:cjc040_2539"
    INDEX 01 01:25:39
  TRACK 70 AUDIO
    TITLE "0:"
    INDEX 01 01:26:46
  TRACK 71 AUDIO
    TITLE "11:cjc040_2540"
    INDEX 01 01:27:30
  TRACK 72 AUDIO
    TITLE "0:"
    INDEX 01 01:28:67
